<?xml version="1.0" encoding="UTF-8"?>
<svg width="32px" height="32px" viewBox="0 0 32 32" version="1.1" xmlns="http://www.w3.org/2000/svg" xmlns:xlink="http://www.w3.org/1999/xlink">
    <!-- Generator: Sketch 52.2 (67145) - http://www.bohemiancoding.com/sketch -->
    <title>icon/social/notifications_off</title>
    <desc>Created with Sketch.</desc>
    <defs>
        <path d="M16.14,29 C17.6066667,29 18.8066667,27.8 18.8066667,26.3333333 L13.4733333,26.3333333 C13.4733333,27.8 14.66,29 16.14,29 Z M24.14,14.3333333 C24.14,10.24 21.9533333,6.81333333 18.14,5.90666667 L18.14,5 C18.14,3.89333333 17.2466667,3 16.14,3 C15.0333333,3 14.14,3.89333333 14.14,5 L14.14,5.90666667 C13.82,5.98666667 13.5133333,6.10666667 13.22,6.21333333 L24.14,17.1333333 L24.14,14.3333333 Z M7.35333333,4.13333333 L5.47333333,6.01333333 L9.22,9.76 C8.52666667,11.0933333 8.14,12.64 8.14,14.3333333 L8.14,21 L6.42,22.72 C5.58,23.56 6.16666667,25 7.35333333,25 L24.46,25 L26.78,27.32 L28.66,25.44 L7.35333333,4.13333333 Z" id="path-1"></path>
        <path d="M23.6307692,14.4410256 C23.6307692,10.4106667 21.4777436,7.03671795 17.7230769,6.144 L17.7230769,5.25128205 C17.7230769,4.16164103 16.8434872,3.28205128 15.7538462,3.28205128 C14.6642051,3.28205128 13.7846154,4.16164103 13.7846154,5.25128205 L13.7846154,6.144 C13.4695385,6.22276923 13.1675897,6.34092308 12.8787692,6.44594872 L23.6307692,17.1979487 L23.6307692,14.4410256 Z M15.7538462,28.8820513 C17.1979487,28.8820513 18.3794872,27.7005128 18.3794872,26.2564103 L13.1282051,26.2564103 C13.1282051,27.7005128 14.2966154,28.8820513 15.7538462,28.8820513 Z M5.25128205,6.24902564 L8.94030769,9.93805128 C8.25764103,11.2508718 7.87692308,12.7737436 7.87692308,14.4410256 L7.87692308,21.0051282 L5.25128205,23.6307692 L5.25128205,24.9435897 L23.9458462,24.9435897 L26.2301538,27.2278974 L28.0812308,25.3768205 L7.10235897,4.39794872 L5.25128205,6.24902564 Z" id="path-3"></path>
    </defs>
    <g id="icon/social/notifications_off" stroke="none" stroke-width="1" fill="none" fill-rule="evenodd">
        <g id="icon/social/notifications_off_24px">
            <rect id="矩形" x="0" y="0" width="32" height="32"></rect>
            <mask id="mask-2" fill="white">
                <use xlink:href="#path-1"></use>
            </mask>
            <g fill-rule="nonzero"></g>
            <g mask="url(#mask-2)">
                <mask id="mask-4" fill="white">
                    <use xlink:href="#path-3"></use>
                </mask>
                <g fill-rule="nonzero"></g>
                <g id="✱-/-Color-/-Icons-/-White-/-Active-激活-100%" mask="url(#mask-4)" fill="#FFFFFF" fill-rule="evenodd">
                    <g id="✱-/-Color-/-base-/-White">
                        <rect id="Rectangle-13" x="0" y="0" width="31.9003115" height="31.9003115"></rect>
                    </g>
                </g>
            </g>
        </g>
    </g>
</svg>