<?xml version="1.0" encoding="UTF-8"?>
<svg width="24px" height="24px" viewBox="0 0 24 24" version="1.1" xmlns="http://www.w3.org/2000/svg" xmlns:xlink="http://www.w3.org/1999/xlink">
    <!-- Generator: Sketch 52.2 (67145) - http://www.bohemiancoding.com/sketch -->
    <title>ic/timer_stop</title>
    <desc>Created with Sketch.</desc>
    <g id="ic/timer_stop" stroke="none" stroke-width="1" fill="none" fill-rule="evenodd">
        <g>
            <rect id="矩形" x="0" y="0" width="24" height="24"></rect>
            <path d="M7,4 L9,4 C9.55228475,4 10,4.44771525 10,5 L10,19 C10,19.5522847 9.55228475,20 9,20 L7,20 C6.44771525,20 6,19.5522847 6,19 L6,5 C6,4.44771525 6.44771525,4 7,4 Z M15,4 L17,4 C17.5522847,4 18,4.44771525 18,5 L18,19 C18,19.5522847 17.5522847,20 17,20 L15,20 C14.4477153,20 14,19.5522847 14,19 L14,5 C14,4.44771525 14.4477153,4 15,4 Z" id="合并形状" fill="#2A2C45"></path>
        </g>
    </g>
</svg>