<?xml version="1.0" encoding="UTF-8"?>
<svg width="80px" height="80px" viewBox="0 0 80 80" version="1.1" xmlns="http://www.w3.org/2000/svg" xmlns:xlink="http://www.w3.org/1999/xlink">
    <!-- Generator: Sketch 52.2 (67145) - http://www.bohemiancoding.com/sketch -->
    <title>btn/alarm_remind</title>
    <desc>Created with Sketch.</desc>
    <defs>
        <path d="M44,11.44 L34.8,3.72 L32.22,6.78 L41.42,14.5 L44,11.44 Z M15.76,6.78 L13.2,3.72 L4,11.42 L6.58,14.48 L15.76,6.78 Z M25,16 L22,16 L22,28 L31.5,33.7 L33,31.24 L25,26.5 L25,16 Z M24,8 C14.06,8 6,16.06 6,26 C6,35.94 14.04,44 24,44 C33.94,44 42,35.94 42,26 C42,16.06 33.94,8 24,8 Z M24,40 C16.26,40 10,33.74 10,26 C10,18.26 16.26,12 24,12 C31.74,12 38,18.26 38,26 C38,33.74 31.74,40 24,40 Z" id="path-1"></path>
    </defs>
    <g id="btn/alarm_remind" stroke="none" stroke-width="1" fill="none" fill-rule="evenodd">
        <g>
            <rect id="矩形" fill-opacity="0" fill="#FFFFFF" x="16" y="16" width="48" height="48"></rect>
            <circle id="椭圆形" fill="#CD850D" cx="40" cy="40" r="40"></circle>
            <g id="icon/device/access_alarm_24px" transform="translate(16.000000, 16.000000)">
                <mask id="mask-2" fill="white">
                    <use xlink:href="#path-1"></use>
                </mask>
                <g fill-rule="nonzero"></g>
                <g id="✱-/-Color-/-Icons-/-White-/-Active-激活-100%" mask="url(#mask-2)" fill="#FFFFFF" fill-rule="evenodd">
                    <g id="✱-/-Color-/-base-/-White">
                        <rect id="Rectangle-13" x="0" y="0" width="48" height="48"></rect>
                    </g>
                </g>
            </g>
        </g>
    </g>
</svg>